<svg preserveAspectRatio="none" width="100%" height="100%" overflow="visible" style="display: block;" viewBox="0 0 40 45" fill="none" xmlns="http://www.w3.org/2000/svg">
<g id="Overlay">
<rect width="40" height="45" rx="16" fill="var(--fill-0, #10B77F)" fill-opacity="0.1"/>
<path id="Icon" d="M17.675 23.7L18.55 20.85L16.25 19H19.1L20 16.2L20.9 19H23.75L21.425 20.85L22.3 23.7L20 21.925L17.675 23.7V23.7M14 33V25.275C13.3667 24.575 12.875 23.775 12.525 22.875C12.175 21.975 12 21.0167 12 20C12 17.7667 12.775 15.875 14.325 14.325C15.875 12.775 17.7667 12 20 12C22.2333 12 24.125 12.775 25.675 14.325C27.225 15.875 28 17.7667 28 20C28 21.0167 27.825 21.975 27.475 22.875C27.125 23.775 26.6333 24.575 26 25.275V33L20 31L14 33V33M20 26C21.6667 26 23.0833 25.4167 24.25 24.25C25.4167 23.0833 26 21.6667 26 20C26 18.3333 25.4167 16.9167 24.25 15.75C23.0833 14.5833 21.6667 14 20 14C18.3333 14 16.9167 14.5833 15.75 15.75C14.5833 16.9167 14 18.3333 14 20C14 21.6667 14.5833 23.0833 15.75 24.25C16.9167 25.4167 18.3333 26 20 26V26M16 30.025L20 29L24 30.025V26.925C23.4167 27.2583 22.7875 27.5208 22.1125 27.7125C21.4375 27.9042 20.7333 28 20 28C19.2667 28 18.5625 27.9042 17.8875 27.7125C17.2125 27.5208 16.5833 27.2583 16 26.925V30.025V30.025M20 28.475V28.475V28.475V28.475V28.475V28.475V28.475V28.475V28.475V28.475" fill="var(--fill-0, #10B77F)"/>
</g>
</svg>
